<?xml version="1.0" encoding="UTF-8"?>
<svg version="1.1" xmlns="http://www.w3.org/2000/svg" width="512" height="512">
<path d="M0 0 C168.96 0 337.92 0 512 0 C512 168.96 512 337.92 512 512 C343.04 512 174.08 512 0 512 C0 343.04 0 174.08 0 0 Z " fill="#FDFDFD" transform="translate(0,0)"/>
<path d="M0 0 C168.96 0 337.92 0 512 0 C512 168.96 512 337.92 512 512 C343.04 512 174.08 512 0 512 C0 343.04 0 174.08 0 0 Z M367 30 C367 80.49 367 130.98 367 183 C326.74 183 286.48 183 245 183 C245 132.84 245 82.68 245 31 C166.46 31 87.92 31 7 31 C6.979375 52.264375 6.95875 73.52875 6.9375 95.4375 C6.928396 102.16310303 6.91929199 108.88870605 6.90991211 115.81811523 C6.90656862 121.82294438 6.90656862 121.82294438 6.90455627 127.82777405 C6.90301608 130.5119152 6.89985878 133.19601009 6.89442444 135.88014221 C6.88632288 139.93499644 6.88609241 143.98981545 6.88647461 148.04467773 C6.8828765 149.24959838 6.87927839 150.45451902 6.87557125 151.69595242 C6.87694875 152.7804823 6.87832624 153.86501219 6.87974548 154.98240662 C6.87882369 155.93277518 6.8779019 156.88314375 6.87695217 157.86231136 C6.76119884 159.98296672 6.76119884 159.98296672 8 161 C38.03 161 68.06 161 99 161 C99 266.93 99 372.86 99 482 C147.18 482 195.36 482 245 482 C245 428.87 245 375.74 245 321 C285.26 321 325.52 321 367 321 C367 374.13 367 427.26 367 482 C389.584375 482.020625 412.16875 482.04125 435.4375 482.0625 C446.15238892 482.07615601 446.15238892 482.07615601 457.08374023 482.09008789 C463.46112799 482.09343137 463.46112799 482.09343137 469.83851624 482.09544373 C472.68931346 482.09637914 475.54009226 482.10014147 478.3908844 482.10557556 C482.02051302 482.11240325 485.65011459 482.11449701 489.27974904 482.11307228 C491.24939936 482.1135118 493.21904665 482.11889147 495.18868923 482.12442875 C496.34039136 482.12305125 497.49209349 482.12167376 498.67869568 482.12025452 C500.19274065 482.12163721 500.19274065 482.12163721 501.7373724 482.12304783 C503.96830725 482.25424802 503.96830725 482.25424802 505 481 C505.09966874 478.60788575 505.13363158 476.24460603 505.12584114 473.85192871 C505.12729458 473.0913063 505.12874802 472.3306839 505.13024551 471.54701233 C505.13393208 468.96556688 505.13040688 466.38417951 505.12698364 463.80273438 C505.12813441 461.94642354 505.12972164 460.09011292 505.13171089 458.2338028 C505.13591026 453.10727842 505.1338108 447.98077251 505.13072467 442.85424805 C505.12847325 437.3354479 505.13194889 431.81665106 505.13470459 426.29785156 C505.13916406 415.47644299 505.13818504 404.65504132 505.13529195 393.83363247 C505.13303861 385.04314047 505.13272509 376.25265041 505.13381577 367.4621582 C505.133969 366.21366986 505.13412223 364.96518151 505.13428011 363.67886019 C505.13459982 361.14301745 505.13492403 358.60717471 505.1352527 356.07133198 C505.13802652 332.9414137 505.13514418 309.81149906 505.1299101 286.68158162 C505.12516418 265.54813572 505.1255888 244.41469585 505.13037109 223.28125 C505.13572093 199.56024861 505.13783331 175.83925014 505.13475883 152.11824799 C505.13444026 149.59144592 505.13412589 147.06464386 505.13381577 144.5378418 C505.13366149 143.29442788 505.13350721 142.05101396 505.13334826 140.76992083 C505.13248284 131.98438976 505.13394652 123.19886082 505.13629532 114.41333008 C505.13909255 103.7147447 505.1383567 93.01616666 505.13301457 82.31758213 C505.13037651 76.85327818 505.12937426 71.38898649 505.13266373 65.92468262 C505.13562455 60.93098699 505.13403749 55.93731509 505.12868617 50.94362164 C505.12756107 49.12870654 505.12815522 47.31378947 505.13056196 45.49887562 C505.1335642 43.04857823 505.1305233 40.59836418 505.12584114 38.14807129 C505.12818231 37.4290287 505.13052347 36.70998611 505.13293558 35.96915436 C505.40035344 32.70358649 505.40035344 32.70358649 504 30 C502.22839682 29.90365541 500.45291592 29.87812519 498.67869568 29.87974548 C496.95114249 29.87767924 496.95114249 29.87767924 495.18868923 29.87557125 C493.90882169 29.87916936 492.62895414 29.88276747 491.31030273 29.88647461 C489.93849471 29.88678073 488.56668653 29.88664783 487.19487858 29.88610935 C483.50906887 29.88588286 479.8232914 29.89169403 476.13748932 29.89871979 C472.68349604 29.90439934 469.22951073 29.90468207 465.7755127 29.90539551 C455.6628375 29.91065047 445.55016835 29.92461152 435.4375 29.9375 C401.5609375 29.9684375 401.5609375 29.9684375 367 30 Z " fill="#000000" transform="translate(0,0)"/>
</svg>
